<?xml version="1.0" encoding="utf-8"?>
<!-- Generator: Adobe Illustrator 22.0.1, SVG Export Plug-In . SVG Version: 6.00 Build 0)  -->
<svg version="1.1" xmlns="http://www.w3.org/2000/svg" xmlns:xlink="http://www.w3.org/1999/xlink" x="0px" y="0px"
	 viewBox="0 0 559.1 132.9" style="enable-background:new 0 0 559.1 132.9;" xml:space="preserve">
<style type="text/css">
	.st0{display:none;}
	.st1{display:inline;fill:#FFFFFF;}
	.st2{display:inline;}
	.st3{fill:#2C89DD;}
	.st4{font-family:'Roboto-Medium';}
	.st5{font-size:104.2131px;}
	.st6{letter-spacing:-3;}
	.st7{display:none;fill:#CCCCCC;}
	.st8{fill:#D8AE2A;}
</style>
<g id="Layer_1">
	<g class="st0">
		<path class="st1" d="M256,298c-61.8,0-120-24.1-163.7-67.8S24.5,128.3,24.5,66.5s24.1-120,67.8-163.7S194.2-165,256-165
			s120,24.1,163.7,67.8S487.5,4.6,487.5,66.5s-24.1,120-67.8,163.7S317.8,298,256,298z"/>
		<path class="st2" d="M256-164.5c31.2,0,61.4,6.1,89.9,18.2c27.5,11.6,52.2,28.3,73.4,49.5c21.2,21.2,37.9,45.9,49.5,73.4
			C480.9,5,487,35.3,487,66.5s-6.1,61.4-18.2,89.9c-11.6,27.5-28.3,52.2-49.5,73.4c-21.2,21.2-45.9,37.9-73.4,49.5
			c-28.5,12-58.7,18.2-89.9,18.2s-61.4-6.1-89.9-18.2c-27.5-11.6-52.2-28.3-73.4-49.5c-21.2-21.2-37.9-45.9-49.5-73.4
			C31.1,127.9,25,97.7,25,66.5S31.1,5,43.2-23.4C54.8-51,71.4-75.7,92.7-96.9c21.2-21.2,45.9-37.9,73.4-49.5
			C194.6-158.4,224.8-164.5,256-164.5 M256-165.5c-128.1,0-232,103.9-232,232s103.9,232,232,232s232-103.9,232-232
			S384.1-165.5,256-165.5L256-165.5z"/>
	</g>
	<text transform="matrix(1 0 0 1 41.5081 96.9258)" class="st3 st4 st5 st6">Convocal</text>
</g>
<g id="Layer_2">
	<path class="st7" d="M412.4,36.5h-11.2c-1.9,0-3.4-1.5-3.4-3.4V21.9c0-1.9,1.5-3.4,3.4-3.4h11.2c1.9,0,3.4,1.5,3.4,3.4v11.2
		C415.8,35,414.3,36.5,412.4,36.5L412.4,36.5z M401.2,20.8c-0.6,0-1.1,0.5-1.1,1.1v11.2c0,0.6,0.5,1.1,1.1,1.1h11.2
		c0.6,0,1.1-0.5,1.1-1.1V21.9c0-0.6-0.5-1.1-1.1-1.1L401.2,20.8L401.2,20.8z M391.1,36.5h-11.2c-1.9,0-3.4-1.5-3.4-3.4V21.9
		c0-1.9,1.5-3.4,3.4-3.4h11.2c1.9,0,3.4,1.5,3.4,3.4v11.2C394.5,35,393,36.5,391.1,36.5L391.1,36.5z M379.9,20.8
		c-0.6,0-1.1,0.5-1.1,1.1v11.2c0,0.6,0.5,1.1,1.1,1.1h11.2c0.6,0,1.1-0.5,1.1-1.1V21.9c0-0.6-0.5-1.1-1.1-1.1L379.9,20.8L379.9,20.8
		z M406.8,17.5c-0.9,0-1.7-0.3-2.4-1l-7.9-7.9c-1.3-1.3-1.3-3.4,0-4.8l7.9-7.9c1.3-1.3,3.5-1.3,4.8,0l7.9,7.9c1.3,1.3,1.3,3.4,0,4.8
		l-7.9,7.9C408.5,17.1,407.7,17.5,406.8,17.5L406.8,17.5z M398.1,5.4c-0.4,0.4-0.4,1.2,0,1.6l7.9,7.9c0.4,0.4,1.1,0.4,1.6,0l7.9-7.9
		c0.4-0.4,0.4-1.2,0-1.6l-7.9-7.9c-0.4-0.4-1.1-0.4-1.6,0L398.1,5.4z M391.1,15.2h-11.2c-1.9,0-3.4-1.5-3.4-3.4V0.6
		c0-1.9,1.5-3.4,3.4-3.4h11.2c1.9,0,3.4,1.5,3.4,3.4v11.2C394.5,13.6,393,15.2,391.1,15.2L391.1,15.2z M379.9-0.5
		c-0.6,0-1.1,0.5-1.1,1.1v11.2c0,0.6,0.5,1.1,1.1,1.1h11.2c0.6,0,1.1-0.5,1.1-1.1V0.6c0-0.6-0.5-1.1-1.1-1.1
		C391.1-0.5,379.9-0.5,379.9-0.5z"/>
	<path class="st8" d="M492.5,55.1h-25.5c-1.2-1.7-3.2-2.8-5.4-2.8c-3.6,0-6.5,2.9-6.5,6.5c0,3.6,2.9,6.5,6.5,6.5s6.5-2.9,6.5-6.5
		c0-0.2,0-0.5,0-0.7h24.4c1.9,0,3.5,1.6,3.5,3.5v28.5c0,1.9-1.6,3.5-3.5,3.5h-28.5c-1.9,0-3.5-1.6-3.5-3.5v-20h-3v20
		c0,3.6,2.9,6.5,6.5,6.5h28.5c3.6,0,6.5-2.9,6.5-6.5V61.6C499,58,496.1,55.1,492.5,55.1z M461.5,62.3c-1.9,0-3.5-1.6-3.5-3.5
		s1.6-3.5,3.5-3.5s3.5,1.6,3.5,3.5S463.5,62.3,461.5,62.3z M471.1,62.3c-0.8,0-1.5,0.7-1.5,1.5v3.9h-3.9c-0.8,0-1.5,0.7-1.5,1.5
		c0,0.8,0.7,1.5,1.5,1.5h3.9v3.9c0,0.8,0.7,1.5,1.5,1.5c0.8,0,1.5-0.7,1.5-1.5v-3.9h3.9c0.8,0,1.5-0.7,1.5-1.5
		c0-0.8-0.7-1.5-1.5-1.5h-3.9v-3.9C472.6,62.9,472,62.3,471.1,62.3z M476,78.5c-0.6-0.6-1.5-0.6-2.1,0l-2.7,2.7l-2.7-2.7
		c-0.6-0.6-1.5-0.6-2.1,0c-0.6,0.6-0.6,1.5,0,2.1l2.7,2.7l-2.7,2.7c-0.6,0.6-0.6,1.5,0,2.1c0.3,0.3,0.7,0.4,1.1,0.4
		c0.4,0,0.8-0.1,1.1-0.4l2.7-2.7l2.7,2.7c0.3,0.3,0.7,0.4,1.1,0.4c0.4,0,0.8-0.1,1.1-0.4c0.6-0.6,0.6-1.5,0-2.1l-2.7-2.7l2.7-2.7
		C476.6,80,476.6,79.1,476,78.5z M493,69.2c0-0.8-0.7-1.5-1.5-1.5h-10.8c-0.8,0-1.5,0.7-1.5,1.5c0,0.8,0.7,1.5,1.5,1.5h10.8
		C492.3,70.7,493,70,493,69.2z M480.7,83.7h10.8c0.8,0,1.5-0.7,1.5-1.5s-0.7-1.5-1.5-1.5h-10.8c-0.8,0-1.5,0.7-1.5,1.5
		S479.8,83.7,480.7,83.7z M484.3,77.6c-0.1,1.1,0.6,2,1.7,2.1c1.1,0.1,2-0.6,2.1-1.7c0-0.1,0-0.3,0-0.4c0.1-1.1-0.6-2-1.7-2.1
		c-1.1-0.1-2,0.6-2.1,1.7C484.2,77.3,484.2,77.5,484.3,77.6z M484.3,86.8c-0.1,1.1,0.6,2,1.7,2.1c1.1,0.1,2-0.6,2.1-1.7
		c0-0.1,0-0.3,0-0.4c0.1-1.1-0.6-2-1.7-2.1c-1.1-0.1-2,0.6-2.1,1.7C484.2,86.5,484.2,86.6,484.3,86.8z"/>
</g>
</svg>
